<svg width="130" height="27" viewBox="0 0 130 27" fill="none" xmlns="http://www.w3.org/2000/svg">
<path d="M3.536 0.971998C4.352 0.971998 4.904 1.104 5.192 1.368C5.504 1.632 5.72 2.184 5.84 3.024L8.216 22.176C8.288 22.752 8.444 23.124 8.684 23.292C8.924 23.46 9.308 23.556 9.836 23.58L9.8 27H8.216C6.104 27 4.712 26.484 4.04 25.452C3.68 24.9 3.428 24.36 3.284 23.832C3.14 23.28 3.008 22.512 2.888 21.528L0.08 0.971998H3.536ZM12.932 27H10.7L14.624 3.024C14.72 2.208 14.924 1.668 15.236 1.404C15.548 1.116 16.112 0.971998 16.928 0.971998H20.348L16.748 22.248C16.58 23.16 16.436 23.832 16.316 24.264C16.22 24.696 16.04 25.164 15.776 25.668C15.512 26.172 15.152 26.52 14.696 26.712C14.24 26.904 13.652 27 12.932 27ZM28.459 27H28.387C26.011 27 24.547 26.592 23.995 25.776C23.731 25.392 23.515 25.02 23.347 24.66C23.203 24.3 23.107 23.736 23.059 22.968C22.939 21.576 22.879 20.028 22.879 18.324C22.879 16.62 22.891 15.396 22.915 14.652C22.939 13.884 23.011 13.116 23.131 12.348C23.275 11.556 23.455 10.992 23.671 10.656C23.887 10.296 24.211 9.972 24.643 9.684C25.075 9.396 25.579 9.216 26.155 9.144C26.731 9.048 27.475 9 28.387 9H28.459V27ZM38.035 21.312V23.148C38.035 25.716 36.727 27 34.111 27H29.575V24.3H31.519C32.023 24.3 32.335 24.228 32.455 24.084C32.575 23.916 32.635 23.628 32.635 23.22V22.068C32.635 21.708 32.671 21.504 32.743 21.456C32.839 21.408 32.899 21.384 32.923 21.384C32.947 21.36 33.007 21.348 33.103 21.348C33.223 21.324 33.307 21.312 33.355 21.312C34.915 21.312 36.475 21.312 38.035 21.312ZM29.575 9H33.751C35.407 9 36.535 9.324 37.135 9.972C37.735 10.62 38.035 11.58 38.035 12.852V16.02C38.035 18.18 36.859 19.26 34.507 19.26H29.215V16.56H31.159C31.735 16.56 32.119 16.488 32.311 16.344C32.527 16.2 32.635 15.924 32.635 15.516V12.78C32.635 12.372 32.575 12.096 32.455 11.952C32.335 11.784 32.023 11.7 31.519 11.7H29.575V9ZM50.5821 11.7H48.6381C48.0141 11.7 47.6061 11.784 47.4141 11.952C47.2461 12.12 47.1621 12.396 47.1621 12.78V23.256C47.1621 23.616 47.2461 23.88 47.4141 24.048C47.6061 24.216 48.0141 24.3 48.6381 24.3H50.5821V27H47.0901C44.7141 27 43.2501 26.592 42.6981 25.776C42.4341 25.392 42.2181 25.02 42.0501 24.66C41.9061 24.3 41.8101 23.736 41.7621 22.968C41.6421 21.576 41.5821 20.028 41.5821 18.324C41.5821 16.62 41.5941 15.396 41.6181 14.652C41.6421 13.884 41.7141 13.116 41.8341 12.348C41.9781 11.556 42.1581 10.992 42.3741 10.656C42.5901 10.296 42.9141 9.972 43.3461 9.684C43.7781 9.396 44.2821 9.216 44.8581 9.144C45.4341 9.048 46.1781 9 47.0901 9H50.5821V11.7ZM51.6621 0.971998H53.8581C54.9141 0.971998 55.7061 1.236 56.2341 1.764C56.7861 2.268 57.0621 2.928 57.0621 3.744V24.228C57.0621 25.044 56.7861 25.716 56.2341 26.244C55.7061 26.748 54.9141 27 53.8581 27H51.6621V0.971998ZM69.9532 11.7H68.0092C67.2652 11.7 66.8452 11.832 66.7492 12.096C66.6052 12.408 66.5332 12.852 66.5332 13.428V22.572C66.5332 22.62 66.5332 22.764 66.5332 23.004C66.5332 23.244 66.5572 23.448 66.6052 23.616C66.7012 24.072 67.1692 24.3 68.0092 24.3H69.9532V27H66.4612C65.5492 27 64.8052 26.964 64.2292 26.892C63.6532 26.796 63.1492 26.604 62.7172 26.316C62.2852 26.028 61.9612 25.716 61.7452 25.38C61.5292 25.02 61.3492 24.456 61.2052 23.688C61.0372 22.608 60.9532 21.096 60.9532 19.152C60.9532 17.208 60.9652 15.9 60.9892 15.228C61.0132 14.532 61.0492 13.8 61.0972 13.032C61.1692 12.264 61.2772 11.7 61.4212 11.34C61.5892 10.98 61.7932 10.62 62.0332 10.26C62.2972 9.876 62.6332 9.612 63.0412 9.468C63.9292 9.156 65.0692 9 66.4612 9H69.9532V11.7ZM78.0532 26.748C78.0532 26.916 78.0052 27 77.9092 27H74.9572C73.6132 27 72.6172 26.688 71.9692 26.064C71.3452 25.44 71.0332 24.42 71.0332 23.004V9H72.5092C74.0212 9 75.0532 9.36 75.6052 10.08C76.1572 10.776 76.4332 11.7 76.4332 12.852V22.932C76.4332 23.676 76.5892 24.096 76.9012 24.192C77.0692 24.264 77.2972 24.3 77.5852 24.3H77.7652C77.9572 24.3 78.0532 24.384 78.0532 24.552V26.748ZM87.1927 9H92.2327C94.8487 9 96.1567 10.284 96.1567 12.852V27H92.0527C91.6687 27 91.3567 26.868 91.1167 26.604C90.8767 26.34 90.7567 25.992 90.7567 25.56V12.78C90.7567 12.396 90.6607 12.12 90.4687 11.952C90.3007 11.784 89.9047 11.7 89.2807 11.7H87.1927V9ZM80.8927 9H83.0887C84.1447 9 84.9367 9.264 85.4647 9.792C86.0167 10.296 86.2927 10.956 86.2927 11.772V27H82.1887C81.8047 27 81.4927 26.868 81.2527 26.604C81.0127 26.34 80.8927 25.992 80.8927 25.56V9ZM109.408 26.712C109.408 26.856 109.336 26.952 109.192 27H106.456C104.704 27 103.432 26.652 102.64 25.956C101.848 25.26 101.452 24.036 101.452 22.284V11.772H99.6158C99.0158 11.772 98.7158 11.412 98.7158 10.692V9H101.452V0.971998H103.648C104.704 0.971998 105.496 1.236 106.024 1.764C106.576 2.292 106.852 2.964 106.852 3.78V22.932C106.852 23.82 107.356 24.264 108.364 24.264H109.12C109.312 24.264 109.408 24.348 109.408 24.516V26.712ZM110.524 9V10.692C110.524 11.412 110.224 11.772 109.624 11.772H107.752V9H110.524ZM121.633 11.7H119.689C118.945 11.7 118.525 11.832 118.429 12.096C118.285 12.408 118.213 12.852 118.213 13.428V22.572C118.213 22.62 118.213 22.764 118.213 23.004C118.213 23.244 118.237 23.448 118.285 23.616C118.381 24.072 118.849 24.3 119.689 24.3H121.633V27H118.141C117.229 27 116.485 26.964 115.909 26.892C115.333 26.796 114.829 26.604 114.397 26.316C113.965 26.028 113.641 25.716 113.425 25.38C113.209 25.02 113.029 24.456 112.885 23.688C112.717 22.608 112.633 21.096 112.633 19.152C112.633 17.208 112.645 15.9 112.669 15.228C112.693 14.532 112.729 13.8 112.777 13.032C112.849 12.264 112.957 11.7 113.101 11.34C113.269 10.98 113.473 10.62 113.713 10.26C113.977 9.876 114.313 9.612 114.721 9.468C115.609 9.156 116.749 9 118.141 9H121.633V11.7ZM129.733 26.748C129.733 26.916 129.685 27 129.589 27H126.637C125.293 27 124.297 26.688 123.649 26.064C123.025 25.44 122.713 24.42 122.713 23.004V9H124.189C125.701 9 126.733 9.36 127.285 10.08C127.837 10.776 128.113 11.7 128.113 12.852V22.932C128.113 23.676 128.269 24.096 128.581 24.192C128.749 24.264 128.977 24.3 129.265 24.3H129.445C129.637 24.3 129.733 24.384 129.733 24.552V26.748Z" fill="#ECECEC"/>
</svg>
